<?xml version="1.0" encoding="UTF-8" standalone="no"?>
<!DOCTYPE svg PUBLIC "-//W3C//DTD SVG 1.1//EN"
 "http://www.w3.org/Graphics/SVG/1.1/DTD/svg11.dtd">
<!-- Generated by graphviz version 2.40.1 (20161225.0304)
 -->
<!-- Title: snakemake_dag Pages: 1 -->
<svg width="246pt" height="260pt"
 viewBox="0.00 0.00 246.00 260.00" xmlns="http://www.w3.org/2000/svg" xmlns:xlink="http://www.w3.org/1999/xlink">
<g id="graph0" class="graph" transform="scale(1 1) rotate(0) translate(4 256)">
<title>snakemake_dag</title>
<polygon fill="#ffffff" stroke="transparent" points="-4,4 -4,-256 242,-256 242,4 -4,4"/>
<!-- 0 -->
<g id="node1" class="node">
<title>0</title>
<path fill="none" stroke="#c6d856" stroke-width="2" d="M136,-36C136,-36 106,-36 106,-36 100,-36 94,-30 94,-24 94,-24 94,-12 94,-12 94,-6 100,0 106,0 106,0 136,0 136,0 142,0 148,-6 148,-12 148,-12 148,-24 148,-24 148,-30 142,-36 136,-36"/>
<text text-anchor="middle" x="121" y="-15.5" font-family="sans" font-size="10.00" fill="#000000">all</text>
</g>
<!-- 1 -->
<g id="node2" class="node">
<title>1</title>
<path fill="none" stroke="#d8a456" stroke-width="2" d="M42,-180C42,-180 12,-180 12,-180 6,-180 0,-174 0,-168 0,-168 0,-156 0,-156 0,-150 6,-144 12,-144 12,-144 42,-144 42,-144 48,-144 54,-150 54,-156 54,-156 54,-168 54,-168 54,-174 48,-180 42,-180"/>
<text text-anchor="middle" x="27" y="-159.5" font-family="sans" font-size="10.00" fill="#000000">fastqc</text>
</g>
<!-- 1&#45;&gt;0 -->
<g id="edge2" class="edge">
<title>1&#45;&gt;0</title>
<path fill="none" stroke="#c0c0c0" stroke-width="2" d="M38.692,-143.6746C50.3472,-125.4502 68.797,-96.7186 85,-72 90.7764,-63.1878 97.1365,-53.6079 102.883,-44.9971"/>
<polygon fill="#c0c0c0" stroke="#c0c0c0" stroke-width="2" points="105.9508,-46.7058 108.5992,-36.4473 100.1316,-42.8152 105.9508,-46.7058"/>
</g>
<!-- 5 -->
<g id="node6" class="node">
<title>5</title>
<path fill="none" stroke="#78d856" stroke-width="2" d="M136,-108C136,-108 106,-108 106,-108 100,-108 94,-102 94,-96 94,-96 94,-84 94,-84 94,-78 100,-72 106,-72 106,-72 136,-72 136,-72 142,-72 148,-78 148,-84 148,-84 148,-96 148,-96 148,-102 142,-108 136,-108"/>
<text text-anchor="middle" x="121" y="-87.5" font-family="sans" font-size="10.00" fill="#000000">multiqc</text>
</g>
<!-- 1&#45;&gt;5 -->
<g id="edge9" class="edge">
<title>1&#45;&gt;5</title>
<path fill="none" stroke="#c0c0c0" stroke-width="2" d="M50.7202,-143.8314C62.4094,-134.8779 76.6688,-123.9558 89.2809,-114.2955"/>
<polygon fill="#c0c0c0" stroke="#c0c0c0" stroke-width="2" points="91.4769,-117.0222 97.2874,-108.1628 87.2203,-111.4651 91.4769,-117.0222"/>
</g>
<!-- 2 -->
<g id="node3" class="node">
<title>2</title>
<path fill="none" stroke="#56d8c9" stroke-width="2" d="M221,-108C221,-108 185,-108 185,-108 179,-108 173,-102 173,-96 173,-96 173,-84 173,-84 173,-78 179,-72 185,-72 185,-72 221,-72 221,-72 227,-72 233,-78 233,-84 233,-84 233,-96 233,-96 233,-102 227,-108 221,-108"/>
<text text-anchor="middle" x="203" y="-87.5" font-family="sans" font-size="10.00" fill="#000000">heatmap</text>
</g>
<!-- 2&#45;&gt;0 -->
<g id="edge3" class="edge">
<title>2&#45;&gt;0</title>
<path fill="none" stroke="#c0c0c0" stroke-width="2" d="M182.3079,-71.8314C172.3052,-63.0485 160.145,-52.3712 149.3001,-42.8489"/>
<polygon fill="#c0c0c0" stroke="#c0c0c0" stroke-width="2" points="151.5092,-40.1308 141.6854,-36.1628 146.8906,-45.3909 151.5092,-40.1308"/>
</g>
<!-- 3 -->
<g id="node4" class="node">
<title>3</title>
<path fill="none" stroke="#56d87b" stroke-width="2" d="M226,-180C226,-180 194,-180 194,-180 188,-180 182,-174 182,-168 182,-168 182,-156 182,-156 182,-150 188,-144 194,-144 194,-144 226,-144 226,-144 232,-144 238,-150 238,-156 238,-156 238,-168 238,-168 238,-174 232,-180 226,-180"/>
<text text-anchor="middle" x="210" y="-159.5" font-family="sans" font-size="10.00" fill="#000000">bracken</text>
</g>
<!-- 3&#45;&gt;2 -->
<g id="edge4" class="edge">
<title>3&#45;&gt;2</title>
<path fill="none" stroke="#c0c0c0" stroke-width="2" d="M208.2336,-143.8314C207.485,-136.131 206.5947,-126.9743 205.7627,-118.4166"/>
<polygon fill="#c0c0c0" stroke="#c0c0c0" stroke-width="2" points="209.2415,-118.0276 204.7902,-108.4133 202.2744,-118.7051 209.2415,-118.0276"/>
</g>
<!-- 3&#45;&gt;5 -->
<g id="edge6" class="edge">
<title>3&#45;&gt;5</title>
<path fill="none" stroke="#c0c0c0" stroke-width="2" d="M187.5415,-143.8314C176.5795,-134.9632 163.2301,-124.1637 151.3735,-114.5718"/>
<polygon fill="#c0c0c0" stroke="#c0c0c0" stroke-width="2" points="153.4271,-111.7313 143.4513,-108.1628 149.0245,-117.1734 153.4271,-111.7313"/>
</g>
<!-- 4 -->
<g id="node5" class="node">
<title>4</title>
<path fill="none" stroke="#56a2d8" stroke-width="2" d="M162,-252C162,-252 130,-252 130,-252 124,-252 118,-246 118,-240 118,-240 118,-228 118,-228 118,-222 124,-216 130,-216 130,-216 162,-216 162,-216 168,-216 174,-222 174,-228 174,-228 174,-240 174,-240 174,-246 168,-252 162,-252"/>
<text text-anchor="middle" x="146" y="-231.5" font-family="sans" font-size="10.00" fill="#000000">kraken2</text>
</g>
<!-- 4&#45;&gt;3 -->
<g id="edge5" class="edge">
<title>4&#45;&gt;3</title>
<path fill="none" stroke="#c0c0c0" stroke-width="2" d="M162.1499,-215.8314C169.6717,-207.3694 178.7565,-197.1489 186.9804,-187.8971"/>
<polygon fill="#c0c0c0" stroke="#c0c0c0" stroke-width="2" points="189.6049,-190.2127 193.6327,-180.4133 184.373,-185.5621 189.6049,-190.2127"/>
</g>
<!-- 4&#45;&gt;5 -->
<g id="edge7" class="edge">
<title>4&#45;&gt;5</title>
<path fill="none" stroke="#c0c0c0" stroke-width="2" d="M125.1422,-215.6461C115.846,-206.0709 105.9022,-193.54 101,-180 93.644,-159.6823 99.6081,-135.7652 106.8894,-117.6951"/>
<polygon fill="#c0c0c0" stroke="#c0c0c0" stroke-width="2" points="110.1904,-118.8821 110.9939,-108.3177 103.7778,-116.0752 110.1904,-118.8821"/>
</g>
<!-- 5&#45;&gt;0 -->
<g id="edge1" class="edge">
<title>5&#45;&gt;0</title>
<path fill="none" stroke="#c0c0c0" stroke-width="2" d="M121,-71.8314C121,-64.131 121,-54.9743 121,-46.4166"/>
<polygon fill="#c0c0c0" stroke="#c0c0c0" stroke-width="2" points="124.5001,-46.4132 121,-36.4133 117.5001,-46.4133 124.5001,-46.4132"/>
</g>
<!-- 6 -->
<g id="node7" class="node">
<title>6</title>
<path fill="none" stroke="#d85656" stroke-width="2" d="M152,-180C152,-180 122,-180 122,-180 116,-180 110,-174 110,-168 110,-168 110,-156 110,-156 110,-150 116,-144 122,-144 122,-144 152,-144 152,-144 158,-144 164,-150 164,-156 164,-156 164,-168 164,-168 164,-174 158,-180 152,-180"/>
<text text-anchor="middle" x="137" y="-159.5" font-family="sans" font-size="10.00" fill="#000000">flash2</text>
</g>
<!-- 6&#45;&gt;5 -->
<g id="edge8" class="edge">
<title>6&#45;&gt;5</title>
<path fill="none" stroke="#c0c0c0" stroke-width="2" d="M132.9625,-143.8314C131.2513,-136.131 129.2165,-126.9743 127.3148,-118.4166"/>
<polygon fill="#c0c0c0" stroke="#c0c0c0" stroke-width="2" points="130.6779,-117.4159 125.0918,-108.4133 123.8446,-118.9344 130.6779,-117.4159"/>
</g>
</g>
</svg>
